<?xml version="1.0" encoding="UTF-8" standalone="no"?>
<!DOCTYPE svg PUBLIC "-//W3C//DTD SVG 1.1//EN"
 "http://www.w3.org/Graphics/SVG/1.1/DTD/svg11.dtd">
<!-- Generated by graphviz version 2.38.0 (20140413.2041)
 -->
<!-- Title: dg Pages: 1 -->
<svg width="476pt" height="476pt"
 viewBox="0.00 0.00 476.00 476.00" xmlns="http://www.w3.org/2000/svg" xmlns:xlink="http://www.w3.org/1999/xlink">
<g id="graph0" class="graph" transform="scale(1 1) rotate(0) translate(4 472)">
<title>dg</title>
<polygon fill="white" stroke="none" points="-4,4 -4,-472 472,-472 472,4 -4,4"/>
<!-- 0 -->
<g id="node1" class="node"><title>0</title>
<ellipse fill="none" stroke="black" cx="225" cy="-450" rx="27" ry="18"/>
<text text-anchor="middle" x="225" y="-446.3" font-family="Times,serif" font-size="14.00">E</text>
</g>
<!-- 1 -->
<g id="node2" class="node"><title>1</title>
<ellipse fill="none" stroke="black" cx="171" cy="-378" rx="27" ry="18"/>
<text text-anchor="middle" x="171" y="-374.3" font-family="Times,serif" font-size="14.00">A</text>
</g>
<!-- 0&#45;&gt;1 -->
<g id="edge1" class="edge"><title>0&#45;&gt;1</title>
<path fill="none" stroke="black" d="M213.016,-433.465C206.024,-424.402 197.064,-412.786 189.215,-402.612"/>
<polygon fill="black" stroke="black" points="191.83,-400.272 182.951,-394.492 186.288,-404.548 191.83,-400.272"/>
</g>
<!-- 8 -->
<g id="node9" class="node"><title>8</title>
<ellipse fill="none" stroke="black" cx="279" cy="-378" rx="27" ry="18"/>
<text text-anchor="middle" x="279" y="-374.3" font-family="Times,serif" font-size="14.00">E1</text>
</g>
<!-- 0&#45;&gt;8 -->
<g id="edge8" class="edge"><title>0&#45;&gt;8</title>
<path fill="none" stroke="black" d="M236.984,-433.465C243.976,-424.402 252.936,-412.786 260.785,-402.612"/>
<polygon fill="black" stroke="black" points="263.712,-404.548 267.049,-394.492 258.17,-400.272 263.712,-404.548"/>
</g>
<!-- 2 -->
<g id="node3" class="node"><title>2</title>
<ellipse fill="none" stroke="black" cx="99" cy="-306" rx="27" ry="18"/>
<text text-anchor="middle" x="99" y="-302.3" font-family="Times,serif" font-size="14.00">C</text>
</g>
<!-- 1&#45;&gt;2 -->
<g id="edge2" class="edge"><title>1&#45;&gt;2</title>
<path fill="none" stroke="black" d="M156.43,-362.834C146.25,-352.938 132.476,-339.546 120.969,-328.359"/>
<polygon fill="black" stroke="black" points="123.405,-325.846 113.796,-321.385 118.526,-330.865 123.405,-325.846"/>
</g>
<!-- 6 -->
<g id="node7" class="node"><title>6</title>
<ellipse fill="none" stroke="black" cx="171" cy="-306" rx="27" ry="18"/>
<text text-anchor="middle" x="171" y="-302.3" font-family="Times,serif" font-size="14.00">A1</text>
</g>
<!-- 1&#45;&gt;6 -->
<g id="edge6" class="edge"><title>1&#45;&gt;6</title>
<path fill="none" stroke="black" d="M171,-359.697C171,-351.983 171,-342.712 171,-334.112"/>
<polygon fill="black" stroke="black" points="174.5,-334.104 171,-324.104 167.5,-334.104 174.5,-334.104"/>
</g>
<!-- 3 -->
<g id="node4" class="node"><title>3</title>
<ellipse fill="none" stroke="black" cx="27" cy="-234" rx="27" ry="18"/>
<text text-anchor="middle" x="27" y="-230.3" font-family="Times,serif" font-size="14.00">n</text>
</g>
<!-- 2&#45;&gt;3 -->
<g id="edge3" class="edge"><title>2&#45;&gt;3</title>
<path fill="none" stroke="black" d="M84.4297,-290.834C74.2501,-280.938 60.4761,-267.546 48.9694,-256.359"/>
<polygon fill="black" stroke="black" points="51.4055,-253.846 41.7957,-249.385 46.5259,-258.865 51.4055,-253.846"/>
</g>
<!-- 4 -->
<g id="node5" class="node"><title>4</title>
<ellipse fill="none" stroke="black" cx="99" cy="-234" rx="27" ry="18"/>
<text text-anchor="middle" x="99" y="-230.3" font-family="Times,serif" font-size="14.00">C1</text>
</g>
<!-- 2&#45;&gt;4 -->
<g id="edge4" class="edge"><title>2&#45;&gt;4</title>
<path fill="none" stroke="black" d="M99,-287.697C99,-279.983 99,-270.712 99,-262.112"/>
<polygon fill="black" stroke="black" points="102.5,-262.104 99,-252.104 95.5001,-262.104 102.5,-262.104"/>
</g>
<!-- 5 -->
<g id="node6" class="node"><title>5</title>
<ellipse fill="none" stroke="black" cx="99" cy="-162" rx="27" ry="18"/>
<text text-anchor="middle" x="99" y="-158.3" font-family="Times,serif" font-size="14.00">Eps</text>
</g>
<!-- 4&#45;&gt;5 -->
<g id="edge5" class="edge"><title>4&#45;&gt;5</title>
<path fill="none" stroke="black" d="M99,-215.697C99,-207.983 99,-198.712 99,-190.112"/>
<polygon fill="black" stroke="black" points="102.5,-190.104 99,-180.104 95.5001,-190.104 102.5,-190.104"/>
</g>
<!-- 7 -->
<g id="node8" class="node"><title>7</title>
<ellipse fill="none" stroke="black" cx="171" cy="-234" rx="27" ry="18"/>
<text text-anchor="middle" x="171" y="-230.3" font-family="Times,serif" font-size="14.00">Eps</text>
</g>
<!-- 6&#45;&gt;7 -->
<g id="edge7" class="edge"><title>6&#45;&gt;7</title>
<path fill="none" stroke="black" d="M171,-287.697C171,-279.983 171,-270.712 171,-262.112"/>
<polygon fill="black" stroke="black" points="174.5,-262.104 171,-252.104 167.5,-262.104 174.5,-262.104"/>
</g>
<!-- 9 -->
<g id="node10" class="node"><title>9</title>
<ellipse fill="none" stroke="black" cx="243" cy="-306" rx="27" ry="18"/>
<text text-anchor="middle" x="243" y="-302.3" font-family="Times,serif" font-size="14.00">|</text>
</g>
<!-- 8&#45;&gt;9 -->
<g id="edge9" class="edge"><title>8&#45;&gt;9</title>
<path fill="none" stroke="black" d="M270.65,-360.765C266.288,-352.283 260.853,-341.714 255.959,-332.197"/>
<polygon fill="black" stroke="black" points="258.99,-330.439 251.304,-323.147 252.765,-333.641 258.99,-330.439"/>
</g>
<!-- 10 -->
<g id="node11" class="node"><title>10</title>
<ellipse fill="none" stroke="black" cx="315" cy="-306" rx="27" ry="18"/>
<text text-anchor="middle" x="315" y="-302.3" font-family="Times,serif" font-size="14.00">A</text>
</g>
<!-- 8&#45;&gt;10 -->
<g id="edge10" class="edge"><title>8&#45;&gt;10</title>
<path fill="none" stroke="black" d="M287.35,-360.765C291.712,-352.283 297.147,-341.714 302.041,-332.197"/>
<polygon fill="black" stroke="black" points="305.235,-333.641 306.696,-323.147 299.01,-330.439 305.235,-333.641"/>
</g>
<!-- 22 -->
<g id="node23" class="node"><title>22</title>
<ellipse fill="none" stroke="black" cx="387" cy="-306" rx="27" ry="18"/>
<text text-anchor="middle" x="387" y="-302.3" font-family="Times,serif" font-size="14.00">E1</text>
</g>
<!-- 8&#45;&gt;22 -->
<g id="edge22" class="edge"><title>8&#45;&gt;22</title>
<path fill="none" stroke="black" d="M297.812,-364.807C315.002,-353.665 340.618,-337.062 359.993,-324.504"/>
<polygon fill="black" stroke="black" points="361.916,-327.429 368.403,-319.053 358.108,-321.555 361.916,-327.429"/>
</g>
<!-- 11 -->
<g id="node12" class="node"><title>11</title>
<ellipse fill="none" stroke="black" cx="243" cy="-234" rx="27" ry="18"/>
<text text-anchor="middle" x="243" y="-230.3" font-family="Times,serif" font-size="14.00">C</text>
</g>
<!-- 10&#45;&gt;11 -->
<g id="edge11" class="edge"><title>10&#45;&gt;11</title>
<path fill="none" stroke="black" d="M300.43,-290.834C290.25,-280.938 276.476,-267.546 264.969,-256.359"/>
<polygon fill="black" stroke="black" points="267.405,-253.846 257.796,-249.385 262.526,-258.865 267.405,-253.846"/>
</g>
<!-- 15 -->
<g id="node16" class="node"><title>15</title>
<ellipse fill="none" stroke="black" cx="315" cy="-234" rx="27" ry="18"/>
<text text-anchor="middle" x="315" y="-230.3" font-family="Times,serif" font-size="14.00">A1</text>
</g>
<!-- 10&#45;&gt;15 -->
<g id="edge15" class="edge"><title>10&#45;&gt;15</title>
<path fill="none" stroke="black" d="M315,-287.697C315,-279.983 315,-270.712 315,-262.112"/>
<polygon fill="black" stroke="black" points="318.5,-262.104 315,-252.104 311.5,-262.104 318.5,-262.104"/>
</g>
<!-- 12 -->
<g id="node13" class="node"><title>12</title>
<ellipse fill="none" stroke="black" cx="171" cy="-162" rx="27" ry="18"/>
<text text-anchor="middle" x="171" y="-158.3" font-family="Times,serif" font-size="14.00">n</text>
</g>
<!-- 11&#45;&gt;12 -->
<g id="edge12" class="edge"><title>11&#45;&gt;12</title>
<path fill="none" stroke="black" d="M228.43,-218.834C218.25,-208.938 204.476,-195.546 192.969,-184.359"/>
<polygon fill="black" stroke="black" points="195.405,-181.846 185.796,-177.385 190.526,-186.865 195.405,-181.846"/>
</g>
<!-- 13 -->
<g id="node14" class="node"><title>13</title>
<ellipse fill="none" stroke="black" cx="243" cy="-162" rx="27" ry="18"/>
<text text-anchor="middle" x="243" y="-158.3" font-family="Times,serif" font-size="14.00">C1</text>
</g>
<!-- 11&#45;&gt;13 -->
<g id="edge13" class="edge"><title>11&#45;&gt;13</title>
<path fill="none" stroke="black" d="M243,-215.697C243,-207.983 243,-198.712 243,-190.112"/>
<polygon fill="black" stroke="black" points="246.5,-190.104 243,-180.104 239.5,-190.104 246.5,-190.104"/>
</g>
<!-- 14 -->
<g id="node15" class="node"><title>14</title>
<ellipse fill="none" stroke="black" cx="225" cy="-90" rx="27" ry="18"/>
<text text-anchor="middle" x="225" y="-86.3" font-family="Times,serif" font-size="14.00">Eps</text>
</g>
<!-- 13&#45;&gt;14 -->
<g id="edge14" class="edge"><title>13&#45;&gt;14</title>
<path fill="none" stroke="black" d="M238.643,-144.055C236.609,-136.145 234.139,-126.54 231.863,-117.688"/>
<polygon fill="black" stroke="black" points="235.197,-116.602 229.317,-107.789 228.418,-118.346 235.197,-116.602"/>
</g>
<!-- 16 -->
<g id="node17" class="node"><title>16</title>
<ellipse fill="none" stroke="black" cx="315" cy="-162" rx="27" ry="18"/>
<text text-anchor="middle" x="315" y="-158.3" font-family="Times,serif" font-size="14.00">C</text>
</g>
<!-- 15&#45;&gt;16 -->
<g id="edge16" class="edge"><title>15&#45;&gt;16</title>
<path fill="none" stroke="black" d="M315,-215.697C315,-207.983 315,-198.712 315,-190.112"/>
<polygon fill="black" stroke="black" points="318.5,-190.104 315,-180.104 311.5,-190.104 318.5,-190.104"/>
</g>
<!-- 20 -->
<g id="node21" class="node"><title>20</title>
<ellipse fill="none" stroke="black" cx="423" cy="-162" rx="27" ry="18"/>
<text text-anchor="middle" x="423" y="-158.3" font-family="Times,serif" font-size="14.00">A1</text>
</g>
<!-- 15&#45;&gt;20 -->
<g id="edge20" class="edge"><title>15&#45;&gt;20</title>
<path fill="none" stroke="black" d="M333.812,-220.807C351.002,-209.665 376.618,-193.062 395.993,-180.504"/>
<polygon fill="black" stroke="black" points="397.916,-183.429 404.403,-175.053 394.108,-177.555 397.916,-183.429"/>
</g>
<!-- 17 -->
<g id="node18" class="node"><title>17</title>
<ellipse fill="none" stroke="black" cx="297" cy="-90" rx="27" ry="18"/>
<text text-anchor="middle" x="297" y="-86.3" font-family="Times,serif" font-size="14.00">n</text>
</g>
<!-- 16&#45;&gt;17 -->
<g id="edge17" class="edge"><title>16&#45;&gt;17</title>
<path fill="none" stroke="black" d="M310.643,-144.055C308.609,-136.145 306.139,-126.54 303.863,-117.688"/>
<polygon fill="black" stroke="black" points="307.197,-116.602 301.317,-107.789 300.418,-118.346 307.197,-116.602"/>
</g>
<!-- 18 -->
<g id="node19" class="node"><title>18</title>
<ellipse fill="none" stroke="black" cx="369" cy="-90" rx="27" ry="18"/>
<text text-anchor="middle" x="369" y="-86.3" font-family="Times,serif" font-size="14.00">C1</text>
</g>
<!-- 16&#45;&gt;18 -->
<g id="edge18" class="edge"><title>16&#45;&gt;18</title>
<path fill="none" stroke="black" d="M326.984,-145.465C333.976,-136.402 342.936,-124.786 350.785,-114.612"/>
<polygon fill="black" stroke="black" points="353.712,-116.548 357.049,-106.492 348.17,-112.272 353.712,-116.548"/>
</g>
<!-- 19 -->
<g id="node20" class="node"><title>19</title>
<ellipse fill="none" stroke="black" cx="369" cy="-18" rx="27" ry="18"/>
<text text-anchor="middle" x="369" y="-14.3" font-family="Times,serif" font-size="14.00">Eps</text>
</g>
<!-- 18&#45;&gt;19 -->
<g id="edge19" class="edge"><title>18&#45;&gt;19</title>
<path fill="none" stroke="black" d="M369,-71.6966C369,-63.9827 369,-54.7125 369,-46.1124"/>
<polygon fill="black" stroke="black" points="372.5,-46.1043 369,-36.1043 365.5,-46.1044 372.5,-46.1043"/>
</g>
<!-- 21 -->
<g id="node22" class="node"><title>21</title>
<ellipse fill="none" stroke="black" cx="441" cy="-90" rx="27" ry="18"/>
<text text-anchor="middle" x="441" y="-86.3" font-family="Times,serif" font-size="14.00">Eps</text>
</g>
<!-- 20&#45;&gt;21 -->
<g id="edge21" class="edge"><title>20&#45;&gt;21</title>
<path fill="none" stroke="black" d="M427.357,-144.055C429.391,-136.145 431.861,-126.54 434.137,-117.688"/>
<polygon fill="black" stroke="black" points="437.582,-118.346 436.683,-107.789 430.803,-116.602 437.582,-118.346"/>
</g>
<!-- 23 -->
<g id="node24" class="node"><title>23</title>
<ellipse fill="none" stroke="black" cx="387" cy="-234" rx="27" ry="18"/>
<text text-anchor="middle" x="387" y="-230.3" font-family="Times,serif" font-size="14.00">Eps</text>
</g>
<!-- 22&#45;&gt;23 -->
<g id="edge23" class="edge"><title>22&#45;&gt;23</title>
<path fill="none" stroke="black" d="M387,-287.697C387,-279.983 387,-270.712 387,-262.112"/>
<polygon fill="black" stroke="black" points="390.5,-262.104 387,-252.104 383.5,-262.104 390.5,-262.104"/>
</g>
</g>
</svg>
