<?xml version="1.0" encoding="UTF-8" standalone="no"?>
<!DOCTYPE svg PUBLIC "-//W3C//DTD SVG 1.1//EN"
 "http://www.w3.org/Graphics/SVG/1.1/DTD/svg11.dtd">
<!-- Generated by graphviz version 2.38.0 (20140413.2041)
 -->
<!-- Title: dg Pages: 1 -->
<svg width="458pt" height="476pt"
 viewBox="0.00 0.00 458.00 476.00" xmlns="http://www.w3.org/2000/svg" xmlns:xlink="http://www.w3.org/1999/xlink">
<g id="graph0" class="graph" transform="scale(1 1) rotate(0) translate(4 472)">
<title>dg</title>
<polygon fill="white" stroke="none" points="-4,4 -4,-472 454,-472 454,4 -4,4"/>
<!-- 0 -->
<g id="node1" class="node"><title>0</title>
<ellipse fill="none" stroke="black" cx="243" cy="-450" rx="27" ry="18"/>
<text text-anchor="middle" x="243" y="-446.3" font-family="Times,serif" font-size="14.00">E</text>
</g>
<!-- 1 -->
<g id="node2" class="node"><title>1</title>
<ellipse fill="none" stroke="black" cx="207" cy="-378" rx="27" ry="18"/>
<text text-anchor="middle" x="207" y="-374.3" font-family="Times,serif" font-size="14.00">A</text>
</g>
<!-- 0&#45;&gt;1 -->
<g id="edge1" class="edge"><title>0&#45;&gt;1</title>
<path fill="none" stroke="black" d="M234.65,-432.765C230.288,-424.283 224.853,-413.714 219.959,-404.197"/>
<polygon fill="black" stroke="black" points="222.99,-402.439 215.304,-395.147 216.765,-405.641 222.99,-402.439"/>
</g>
<!-- 18 -->
<g id="node19" class="node"><title>18</title>
<ellipse fill="none" stroke="black" cx="279" cy="-378" rx="27" ry="18"/>
<text text-anchor="middle" x="279" y="-374.3" font-family="Times,serif" font-size="14.00">E1</text>
</g>
<!-- 0&#45;&gt;18 -->
<g id="edge18" class="edge"><title>0&#45;&gt;18</title>
<path fill="none" stroke="black" d="M251.35,-432.765C255.712,-424.283 261.147,-413.714 266.041,-404.197"/>
<polygon fill="black" stroke="black" points="269.235,-405.641 270.696,-395.147 263.01,-402.439 269.235,-405.641"/>
</g>
<!-- 2 -->
<g id="node3" class="node"><title>2</title>
<ellipse fill="none" stroke="black" cx="99" cy="-306" rx="27" ry="18"/>
<text text-anchor="middle" x="99" y="-302.3" font-family="Times,serif" font-size="14.00">C</text>
</g>
<!-- 1&#45;&gt;2 -->
<g id="edge2" class="edge"><title>1&#45;&gt;2</title>
<path fill="none" stroke="black" d="M188.188,-364.807C170.998,-353.665 145.382,-337.062 126.007,-324.504"/>
<polygon fill="black" stroke="black" points="127.892,-321.555 117.597,-319.053 124.084,-327.429 127.892,-321.555"/>
</g>
<!-- 6 -->
<g id="node7" class="node"><title>6</title>
<ellipse fill="none" stroke="black" cx="207" cy="-306" rx="27" ry="18"/>
<text text-anchor="middle" x="207" y="-302.3" font-family="Times,serif" font-size="14.00">A1</text>
</g>
<!-- 1&#45;&gt;6 -->
<g id="edge6" class="edge"><title>1&#45;&gt;6</title>
<path fill="none" stroke="black" d="M207,-359.697C207,-351.983 207,-342.712 207,-334.112"/>
<polygon fill="black" stroke="black" points="210.5,-334.104 207,-324.104 203.5,-334.104 210.5,-334.104"/>
</g>
<!-- 3 -->
<g id="node4" class="node"><title>3</title>
<ellipse fill="none" stroke="black" cx="27" cy="-234" rx="27" ry="18"/>
<text text-anchor="middle" x="27" y="-230.3" font-family="Times,serif" font-size="14.00">n</text>
</g>
<!-- 2&#45;&gt;3 -->
<g id="edge3" class="edge"><title>2&#45;&gt;3</title>
<path fill="none" stroke="black" d="M84.4297,-290.834C74.2501,-280.938 60.4761,-267.546 48.9694,-256.359"/>
<polygon fill="black" stroke="black" points="51.4055,-253.846 41.7957,-249.385 46.5259,-258.865 51.4055,-253.846"/>
</g>
<!-- 4 -->
<g id="node5" class="node"><title>4</title>
<ellipse fill="none" stroke="black" cx="99" cy="-234" rx="27" ry="18"/>
<text text-anchor="middle" x="99" y="-230.3" font-family="Times,serif" font-size="14.00">C1</text>
</g>
<!-- 2&#45;&gt;4 -->
<g id="edge4" class="edge"><title>2&#45;&gt;4</title>
<path fill="none" stroke="black" d="M99,-287.697C99,-279.983 99,-270.712 99,-262.112"/>
<polygon fill="black" stroke="black" points="102.5,-262.104 99,-252.104 95.5001,-262.104 102.5,-262.104"/>
</g>
<!-- 5 -->
<g id="node6" class="node"><title>5</title>
<ellipse fill="none" stroke="black" cx="81" cy="-162" rx="27" ry="18"/>
<text text-anchor="middle" x="81" y="-158.3" font-family="Times,serif" font-size="14.00">Eps</text>
</g>
<!-- 4&#45;&gt;5 -->
<g id="edge5" class="edge"><title>4&#45;&gt;5</title>
<path fill="none" stroke="black" d="M94.6427,-216.055C92.6086,-208.145 90.1388,-198.54 87.8626,-189.688"/>
<polygon fill="black" stroke="black" points="91.1974,-188.602 85.3172,-179.789 84.4179,-190.346 91.1974,-188.602"/>
</g>
<!-- 7 -->
<g id="node8" class="node"><title>7</title>
<ellipse fill="none" stroke="black" cx="207" cy="-234" rx="27" ry="18"/>
<text text-anchor="middle" x="207" y="-230.3" font-family="Times,serif" font-size="14.00">C</text>
</g>
<!-- 6&#45;&gt;7 -->
<g id="edge7" class="edge"><title>6&#45;&gt;7</title>
<path fill="none" stroke="black" d="M207,-287.697C207,-279.983 207,-270.712 207,-262.112"/>
<polygon fill="black" stroke="black" points="210.5,-262.104 207,-252.104 203.5,-262.104 210.5,-262.104"/>
</g>
<!-- 11 -->
<g id="node12" class="node"><title>11</title>
<ellipse fill="none" stroke="black" cx="315" cy="-234" rx="27" ry="18"/>
<text text-anchor="middle" x="315" y="-230.3" font-family="Times,serif" font-size="14.00">A1</text>
</g>
<!-- 6&#45;&gt;11 -->
<g id="edge11" class="edge"><title>6&#45;&gt;11</title>
<path fill="none" stroke="black" d="M225.812,-292.807C243.002,-281.665 268.618,-265.062 287.993,-252.504"/>
<polygon fill="black" stroke="black" points="289.916,-255.429 296.403,-247.053 286.108,-249.555 289.916,-255.429"/>
</g>
<!-- 8 -->
<g id="node9" class="node"><title>8</title>
<ellipse fill="none" stroke="black" cx="153" cy="-162" rx="27" ry="18"/>
<text text-anchor="middle" x="153" y="-158.3" font-family="Times,serif" font-size="14.00">n</text>
</g>
<!-- 7&#45;&gt;8 -->
<g id="edge8" class="edge"><title>7&#45;&gt;8</title>
<path fill="none" stroke="black" d="M195.016,-217.465C188.024,-208.402 179.064,-196.786 171.215,-186.612"/>
<polygon fill="black" stroke="black" points="173.83,-184.272 164.951,-178.492 168.288,-188.548 173.83,-184.272"/>
</g>
<!-- 9 -->
<g id="node10" class="node"><title>9</title>
<ellipse fill="none" stroke="black" cx="225" cy="-162" rx="27" ry="18"/>
<text text-anchor="middle" x="225" y="-158.3" font-family="Times,serif" font-size="14.00">C1</text>
</g>
<!-- 7&#45;&gt;9 -->
<g id="edge9" class="edge"><title>7&#45;&gt;9</title>
<path fill="none" stroke="black" d="M211.357,-216.055C213.391,-208.145 215.861,-198.54 218.137,-189.688"/>
<polygon fill="black" stroke="black" points="221.582,-190.346 220.683,-179.789 214.803,-188.602 221.582,-190.346"/>
</g>
<!-- 10 -->
<g id="node11" class="node"><title>10</title>
<ellipse fill="none" stroke="black" cx="207" cy="-90" rx="27" ry="18"/>
<text text-anchor="middle" x="207" y="-86.3" font-family="Times,serif" font-size="14.00">Eps</text>
</g>
<!-- 9&#45;&gt;10 -->
<g id="edge10" class="edge"><title>9&#45;&gt;10</title>
<path fill="none" stroke="black" d="M220.643,-144.055C218.609,-136.145 216.139,-126.54 213.863,-117.688"/>
<polygon fill="black" stroke="black" points="217.197,-116.602 211.317,-107.789 210.418,-118.346 217.197,-116.602"/>
</g>
<!-- 12 -->
<g id="node13" class="node"><title>12</title>
<ellipse fill="none" stroke="black" cx="315" cy="-162" rx="27" ry="18"/>
<text text-anchor="middle" x="315" y="-158.3" font-family="Times,serif" font-size="14.00">C</text>
</g>
<!-- 11&#45;&gt;12 -->
<g id="edge12" class="edge"><title>11&#45;&gt;12</title>
<path fill="none" stroke="black" d="M315,-215.697C315,-207.983 315,-198.712 315,-190.112"/>
<polygon fill="black" stroke="black" points="318.5,-190.104 315,-180.104 311.5,-190.104 318.5,-190.104"/>
</g>
<!-- 16 -->
<g id="node17" class="node"><title>16</title>
<ellipse fill="none" stroke="black" cx="423" cy="-162" rx="27" ry="18"/>
<text text-anchor="middle" x="423" y="-158.3" font-family="Times,serif" font-size="14.00">A1</text>
</g>
<!-- 11&#45;&gt;16 -->
<g id="edge16" class="edge"><title>11&#45;&gt;16</title>
<path fill="none" stroke="black" d="M333.812,-220.807C351.002,-209.665 376.618,-193.062 395.993,-180.504"/>
<polygon fill="black" stroke="black" points="397.916,-183.429 404.403,-175.053 394.108,-177.555 397.916,-183.429"/>
</g>
<!-- 13 -->
<g id="node14" class="node"><title>13</title>
<ellipse fill="none" stroke="black" cx="279" cy="-90" rx="27" ry="18"/>
<text text-anchor="middle" x="279" y="-86.3" font-family="Times,serif" font-size="14.00">n</text>
</g>
<!-- 12&#45;&gt;13 -->
<g id="edge13" class="edge"><title>12&#45;&gt;13</title>
<path fill="none" stroke="black" d="M306.65,-144.765C302.288,-136.283 296.853,-125.714 291.959,-116.197"/>
<polygon fill="black" stroke="black" points="294.99,-114.439 287.304,-107.147 288.765,-117.641 294.99,-114.439"/>
</g>
<!-- 14 -->
<g id="node15" class="node"><title>14</title>
<ellipse fill="none" stroke="black" cx="351" cy="-90" rx="27" ry="18"/>
<text text-anchor="middle" x="351" y="-86.3" font-family="Times,serif" font-size="14.00">C1</text>
</g>
<!-- 12&#45;&gt;14 -->
<g id="edge14" class="edge"><title>12&#45;&gt;14</title>
<path fill="none" stroke="black" d="M323.35,-144.765C327.712,-136.283 333.147,-125.714 338.041,-116.197"/>
<polygon fill="black" stroke="black" points="341.235,-117.641 342.696,-107.147 335.01,-114.439 341.235,-117.641"/>
</g>
<!-- 15 -->
<g id="node16" class="node"><title>15</title>
<ellipse fill="none" stroke="black" cx="351" cy="-18" rx="27" ry="18"/>
<text text-anchor="middle" x="351" y="-14.3" font-family="Times,serif" font-size="14.00">Eps</text>
</g>
<!-- 14&#45;&gt;15 -->
<g id="edge15" class="edge"><title>14&#45;&gt;15</title>
<path fill="none" stroke="black" d="M351,-71.6966C351,-63.9827 351,-54.7125 351,-46.1124"/>
<polygon fill="black" stroke="black" points="354.5,-46.1043 351,-36.1043 347.5,-46.1044 354.5,-46.1043"/>
</g>
<!-- 17 -->
<g id="node18" class="node"><title>17</title>
<ellipse fill="none" stroke="black" cx="423" cy="-90" rx="27" ry="18"/>
<text text-anchor="middle" x="423" y="-86.3" font-family="Times,serif" font-size="14.00">Eps</text>
</g>
<!-- 16&#45;&gt;17 -->
<g id="edge17" class="edge"><title>16&#45;&gt;17</title>
<path fill="none" stroke="black" d="M423,-143.697C423,-135.983 423,-126.712 423,-118.112"/>
<polygon fill="black" stroke="black" points="426.5,-118.104 423,-108.104 419.5,-118.104 426.5,-118.104"/>
</g>
<!-- 19 -->
<g id="node20" class="node"><title>19</title>
<ellipse fill="none" stroke="black" cx="279" cy="-306" rx="27" ry="18"/>
<text text-anchor="middle" x="279" y="-302.3" font-family="Times,serif" font-size="14.00">Eps</text>
</g>
<!-- 18&#45;&gt;19 -->
<g id="edge19" class="edge"><title>18&#45;&gt;19</title>
<path fill="none" stroke="black" d="M279,-359.697C279,-351.983 279,-342.712 279,-334.112"/>
<polygon fill="black" stroke="black" points="282.5,-334.104 279,-324.104 275.5,-334.104 282.5,-334.104"/>
</g>
</g>
</svg>
