<?xml version="1.0" encoding="UTF-8" standalone="no"?>
<!DOCTYPE svg PUBLIC "-//W3C//DTD SVG 1.1//EN"
 "http://www.w3.org/Graphics/SVG/1.1/DTD/svg11.dtd">
<!-- Generated by graphviz version 2.38.0 (20140413.2041)
 -->
<!-- Title: dg Pages: 1 -->
<svg width="854pt" height="692pt"
 viewBox="0.00 0.00 854.00 692.00" xmlns="http://www.w3.org/2000/svg" xmlns:xlink="http://www.w3.org/1999/xlink">
<g id="graph0" class="graph" transform="scale(1 1) rotate(0) translate(4 688)">
<title>dg</title>
<polygon fill="white" stroke="none" points="-4,4 -4,-688 850,-688 850,4 -4,4"/>
<!-- 0 -->
<g id="node1" class="node"><title>0</title>
<ellipse fill="none" stroke="black" cx="675" cy="-666" rx="27" ry="18"/>
<text text-anchor="middle" x="675" y="-662.3" font-family="Times,serif" font-size="14.00">E</text>
</g>
<!-- 1 -->
<g id="node2" class="node"><title>1</title>
<ellipse fill="none" stroke="black" cx="639" cy="-594" rx="27" ry="18"/>
<text text-anchor="middle" x="639" y="-590.3" font-family="Times,serif" font-size="14.00">A</text>
</g>
<!-- 0&#45;&gt;1 -->
<g id="edge1" class="edge"><title>0&#45;&gt;1</title>
<path fill="none" stroke="black" d="M666.65,-648.765C662.288,-640.283 656.853,-629.714 651.959,-620.197"/>
<polygon fill="black" stroke="black" points="654.99,-618.439 647.304,-611.147 648.765,-621.641 654.99,-618.439"/>
</g>
<!-- 62 -->
<g id="node63" class="node"><title>62</title>
<ellipse fill="none" stroke="black" cx="711" cy="-594" rx="27" ry="18"/>
<text text-anchor="middle" x="711" y="-590.3" font-family="Times,serif" font-size="14.00">E1</text>
</g>
<!-- 0&#45;&gt;62 -->
<g id="edge62" class="edge"><title>0&#45;&gt;62</title>
<path fill="none" stroke="black" d="M683.35,-648.765C687.712,-640.283 693.147,-629.714 698.041,-620.197"/>
<polygon fill="black" stroke="black" points="701.235,-621.641 702.696,-611.147 695.01,-618.439 701.235,-621.641"/>
</g>
<!-- 2 -->
<g id="node3" class="node"><title>2</title>
<ellipse fill="none" stroke="black" cx="387" cy="-522" rx="27" ry="18"/>
<text text-anchor="middle" x="387" y="-518.3" font-family="Times,serif" font-size="14.00">C</text>
</g>
<!-- 1&#45;&gt;2 -->
<g id="edge2" class="edge"><title>1&#45;&gt;2</title>
<path fill="none" stroke="black" d="M614.378,-586.161C569.213,-573.615 473.029,-546.897 421.421,-532.561"/>
<polygon fill="black" stroke="black" points="422.294,-529.171 411.722,-529.867 420.42,-535.916 422.294,-529.171"/>
</g>
<!-- 35 -->
<g id="node36" class="node"><title>35</title>
<ellipse fill="none" stroke="black" cx="639" cy="-522" rx="27" ry="18"/>
<text text-anchor="middle" x="639" y="-518.3" font-family="Times,serif" font-size="14.00">A1</text>
</g>
<!-- 1&#45;&gt;35 -->
<g id="edge35" class="edge"><title>1&#45;&gt;35</title>
<path fill="none" stroke="black" d="M639,-575.697C639,-567.983 639,-558.712 639,-550.112"/>
<polygon fill="black" stroke="black" points="642.5,-550.104 639,-540.104 635.5,-550.104 642.5,-550.104"/>
</g>
<!-- 3 -->
<g id="node4" class="node"><title>3</title>
<ellipse fill="none" stroke="black" cx="243" cy="-450" rx="27" ry="18"/>
<text text-anchor="middle" x="243" y="-446.3" font-family="Times,serif" font-size="14.00">(</text>
</g>
<!-- 2&#45;&gt;3 -->
<g id="edge3" class="edge"><title>2&#45;&gt;3</title>
<path fill="none" stroke="black" d="M365.752,-510.671C341.398,-498.832 301.281,-479.331 273.572,-465.862"/>
<polygon fill="black" stroke="black" points="274.859,-462.595 264.335,-461.371 271.798,-468.891 274.859,-462.595"/>
</g>
<!-- 4 -->
<g id="node5" class="node"><title>4</title>
<ellipse fill="none" stroke="black" cx="315" cy="-450" rx="27" ry="18"/>
<text text-anchor="middle" x="315" y="-446.3" font-family="Times,serif" font-size="14.00">E</text>
</g>
<!-- 2&#45;&gt;4 -->
<g id="edge4" class="edge"><title>2&#45;&gt;4</title>
<path fill="none" stroke="black" d="M372.43,-506.834C362.25,-496.938 348.476,-483.546 336.969,-472.359"/>
<polygon fill="black" stroke="black" points="339.405,-469.846 329.796,-465.385 334.526,-474.865 339.405,-469.846"/>
</g>
<!-- 32 -->
<g id="node33" class="node"><title>32</title>
<ellipse fill="none" stroke="black" cx="387" cy="-450" rx="27" ry="18"/>
<text text-anchor="middle" x="387" y="-446.3" font-family="Times,serif" font-size="14.00">)</text>
</g>
<!-- 2&#45;&gt;32 -->
<g id="edge32" class="edge"><title>2&#45;&gt;32</title>
<path fill="none" stroke="black" d="M387,-503.697C387,-495.983 387,-486.712 387,-478.112"/>
<polygon fill="black" stroke="black" points="390.5,-478.104 387,-468.104 383.5,-478.104 390.5,-478.104"/>
</g>
<!-- 33 -->
<g id="node34" class="node"><title>33</title>
<ellipse fill="none" stroke="black" cx="459" cy="-450" rx="27" ry="18"/>
<text text-anchor="middle" x="459" y="-446.3" font-family="Times,serif" font-size="14.00">C1</text>
</g>
<!-- 2&#45;&gt;33 -->
<g id="edge33" class="edge"><title>2&#45;&gt;33</title>
<path fill="none" stroke="black" d="M401.57,-506.834C411.75,-496.938 425.524,-483.546 437.031,-472.359"/>
<polygon fill="black" stroke="black" points="439.474,-474.865 444.204,-465.385 434.595,-469.846 439.474,-474.865"/>
</g>
<!-- 5 -->
<g id="node6" class="node"><title>5</title>
<ellipse fill="none" stroke="black" cx="171" cy="-378" rx="27" ry="18"/>
<text text-anchor="middle" x="171" y="-374.3" font-family="Times,serif" font-size="14.00">A</text>
</g>
<!-- 4&#45;&gt;5 -->
<g id="edge5" class="edge"><title>4&#45;&gt;5</title>
<path fill="none" stroke="black" d="M293.752,-438.671C269.398,-426.832 229.281,-407.331 201.572,-393.862"/>
<polygon fill="black" stroke="black" points="202.859,-390.595 192.335,-389.371 199.798,-396.891 202.859,-390.595"/>
</g>
<!-- 14 -->
<g id="node15" class="node"><title>14</title>
<ellipse fill="none" stroke="black" cx="315" cy="-378" rx="27" ry="18"/>
<text text-anchor="middle" x="315" y="-374.3" font-family="Times,serif" font-size="14.00">E1</text>
</g>
<!-- 4&#45;&gt;14 -->
<g id="edge14" class="edge"><title>4&#45;&gt;14</title>
<path fill="none" stroke="black" d="M315,-431.697C315,-423.983 315,-414.712 315,-406.112"/>
<polygon fill="black" stroke="black" points="318.5,-406.104 315,-396.104 311.5,-406.104 318.5,-406.104"/>
</g>
<!-- 6 -->
<g id="node7" class="node"><title>6</title>
<ellipse fill="none" stroke="black" cx="99" cy="-306" rx="27" ry="18"/>
<text text-anchor="middle" x="99" y="-302.3" font-family="Times,serif" font-size="14.00">C</text>
</g>
<!-- 5&#45;&gt;6 -->
<g id="edge6" class="edge"><title>5&#45;&gt;6</title>
<path fill="none" stroke="black" d="M156.43,-362.834C146.25,-352.938 132.476,-339.546 120.969,-328.359"/>
<polygon fill="black" stroke="black" points="123.405,-325.846 113.796,-321.385 118.526,-330.865 123.405,-325.846"/>
</g>
<!-- 12 -->
<g id="node13" class="node"><title>12</title>
<ellipse fill="none" stroke="black" cx="171" cy="-306" rx="27" ry="18"/>
<text text-anchor="middle" x="171" y="-302.3" font-family="Times,serif" font-size="14.00">A1</text>
</g>
<!-- 5&#45;&gt;12 -->
<g id="edge12" class="edge"><title>5&#45;&gt;12</title>
<path fill="none" stroke="black" d="M171,-359.697C171,-351.983 171,-342.712 171,-334.112"/>
<polygon fill="black" stroke="black" points="174.5,-334.104 171,-324.104 167.5,-334.104 174.5,-334.104"/>
</g>
<!-- 7 -->
<g id="node8" class="node"><title>7</title>
<ellipse fill="none" stroke="black" cx="27" cy="-234" rx="27" ry="18"/>
<text text-anchor="middle" x="27" y="-230.3" font-family="Times,serif" font-size="14.00">n</text>
</g>
<!-- 6&#45;&gt;7 -->
<g id="edge7" class="edge"><title>6&#45;&gt;7</title>
<path fill="none" stroke="black" d="M84.4297,-290.834C74.2501,-280.938 60.4761,-267.546 48.9694,-256.359"/>
<polygon fill="black" stroke="black" points="51.4055,-253.846 41.7957,-249.385 46.5259,-258.865 51.4055,-253.846"/>
</g>
<!-- 8 -->
<g id="node9" class="node"><title>8</title>
<ellipse fill="none" stroke="black" cx="99" cy="-234" rx="27" ry="18"/>
<text text-anchor="middle" x="99" y="-230.3" font-family="Times,serif" font-size="14.00">C1</text>
</g>
<!-- 6&#45;&gt;8 -->
<g id="edge8" class="edge"><title>6&#45;&gt;8</title>
<path fill="none" stroke="black" d="M99,-287.697C99,-279.983 99,-270.712 99,-262.112"/>
<polygon fill="black" stroke="black" points="102.5,-262.104 99,-252.104 95.5001,-262.104 102.5,-262.104"/>
</g>
<!-- 9 -->
<g id="node10" class="node"><title>9</title>
<ellipse fill="none" stroke="black" cx="27" cy="-162" rx="27" ry="18"/>
<text text-anchor="middle" x="27" y="-158.3" font-family="Times,serif" font-size="14.00">*</text>
</g>
<!-- 8&#45;&gt;9 -->
<g id="edge9" class="edge"><title>8&#45;&gt;9</title>
<path fill="none" stroke="black" d="M84.4297,-218.834C74.2501,-208.938 60.4761,-195.546 48.9694,-184.359"/>
<polygon fill="black" stroke="black" points="51.4055,-181.846 41.7957,-177.385 46.5259,-186.865 51.4055,-181.846"/>
</g>
<!-- 10 -->
<g id="node11" class="node"><title>10</title>
<ellipse fill="none" stroke="black" cx="99" cy="-162" rx="27" ry="18"/>
<text text-anchor="middle" x="99" y="-158.3" font-family="Times,serif" font-size="14.00">C1</text>
</g>
<!-- 8&#45;&gt;10 -->
<g id="edge10" class="edge"><title>8&#45;&gt;10</title>
<path fill="none" stroke="black" d="M99,-215.697C99,-207.983 99,-198.712 99,-190.112"/>
<polygon fill="black" stroke="black" points="102.5,-190.104 99,-180.104 95.5001,-190.104 102.5,-190.104"/>
</g>
<!-- 11 -->
<g id="node12" class="node"><title>11</title>
<ellipse fill="none" stroke="black" cx="99" cy="-90" rx="27" ry="18"/>
<text text-anchor="middle" x="99" y="-86.3" font-family="Times,serif" font-size="14.00">Eps</text>
</g>
<!-- 10&#45;&gt;11 -->
<g id="edge11" class="edge"><title>10&#45;&gt;11</title>
<path fill="none" stroke="black" d="M99,-143.697C99,-135.983 99,-126.712 99,-118.112"/>
<polygon fill="black" stroke="black" points="102.5,-118.104 99,-108.104 95.5001,-118.104 102.5,-118.104"/>
</g>
<!-- 13 -->
<g id="node14" class="node"><title>13</title>
<ellipse fill="none" stroke="black" cx="171" cy="-234" rx="27" ry="18"/>
<text text-anchor="middle" x="171" y="-230.3" font-family="Times,serif" font-size="14.00">Eps</text>
</g>
<!-- 12&#45;&gt;13 -->
<g id="edge13" class="edge"><title>12&#45;&gt;13</title>
<path fill="none" stroke="black" d="M171,-287.697C171,-279.983 171,-270.712 171,-262.112"/>
<polygon fill="black" stroke="black" points="174.5,-262.104 171,-252.104 167.5,-262.104 174.5,-262.104"/>
</g>
<!-- 15 -->
<g id="node16" class="node"><title>15</title>
<ellipse fill="none" stroke="black" cx="243" cy="-306" rx="27" ry="18"/>
<text text-anchor="middle" x="243" y="-302.3" font-family="Times,serif" font-size="14.00">|</text>
</g>
<!-- 14&#45;&gt;15 -->
<g id="edge15" class="edge"><title>14&#45;&gt;15</title>
<path fill="none" stroke="black" d="M300.43,-362.834C290.25,-352.938 276.476,-339.546 264.969,-328.359"/>
<polygon fill="black" stroke="black" points="267.405,-325.846 257.796,-321.385 262.526,-330.865 267.405,-325.846"/>
</g>
<!-- 16 -->
<g id="node17" class="node"><title>16</title>
<ellipse fill="none" stroke="black" cx="315" cy="-306" rx="27" ry="18"/>
<text text-anchor="middle" x="315" y="-302.3" font-family="Times,serif" font-size="14.00">A</text>
</g>
<!-- 14&#45;&gt;16 -->
<g id="edge16" class="edge"><title>14&#45;&gt;16</title>
<path fill="none" stroke="black" d="M315,-359.697C315,-351.983 315,-342.712 315,-334.112"/>
<polygon fill="black" stroke="black" points="318.5,-334.104 315,-324.104 311.5,-334.104 318.5,-334.104"/>
</g>
<!-- 30 -->
<g id="node31" class="node"><title>30</title>
<ellipse fill="none" stroke="black" cx="387" cy="-306" rx="27" ry="18"/>
<text text-anchor="middle" x="387" y="-302.3" font-family="Times,serif" font-size="14.00">E1</text>
</g>
<!-- 14&#45;&gt;30 -->
<g id="edge30" class="edge"><title>14&#45;&gt;30</title>
<path fill="none" stroke="black" d="M329.57,-362.834C339.75,-352.938 353.524,-339.546 365.031,-328.359"/>
<polygon fill="black" stroke="black" points="367.474,-330.865 372.204,-321.385 362.595,-325.846 367.474,-330.865"/>
</g>
<!-- 17 -->
<g id="node18" class="node"><title>17</title>
<ellipse fill="none" stroke="black" cx="243" cy="-234" rx="27" ry="18"/>
<text text-anchor="middle" x="243" y="-230.3" font-family="Times,serif" font-size="14.00">C</text>
</g>
<!-- 16&#45;&gt;17 -->
<g id="edge17" class="edge"><title>16&#45;&gt;17</title>
<path fill="none" stroke="black" d="M300.43,-290.834C290.25,-280.938 276.476,-267.546 264.969,-256.359"/>
<polygon fill="black" stroke="black" points="267.405,-253.846 257.796,-249.385 262.526,-258.865 267.405,-253.846"/>
</g>
<!-- 23 -->
<g id="node24" class="node"><title>23</title>
<ellipse fill="none" stroke="black" cx="315" cy="-234" rx="27" ry="18"/>
<text text-anchor="middle" x="315" y="-230.3" font-family="Times,serif" font-size="14.00">A1</text>
</g>
<!-- 16&#45;&gt;23 -->
<g id="edge23" class="edge"><title>16&#45;&gt;23</title>
<path fill="none" stroke="black" d="M315,-287.697C315,-279.983 315,-270.712 315,-262.112"/>
<polygon fill="black" stroke="black" points="318.5,-262.104 315,-252.104 311.5,-262.104 318.5,-262.104"/>
</g>
<!-- 18 -->
<g id="node19" class="node"><title>18</title>
<ellipse fill="none" stroke="black" cx="171" cy="-162" rx="27" ry="18"/>
<text text-anchor="middle" x="171" y="-158.3" font-family="Times,serif" font-size="14.00">n</text>
</g>
<!-- 17&#45;&gt;18 -->
<g id="edge18" class="edge"><title>17&#45;&gt;18</title>
<path fill="none" stroke="black" d="M228.43,-218.834C218.25,-208.938 204.476,-195.546 192.969,-184.359"/>
<polygon fill="black" stroke="black" points="195.405,-181.846 185.796,-177.385 190.526,-186.865 195.405,-181.846"/>
</g>
<!-- 19 -->
<g id="node20" class="node"><title>19</title>
<ellipse fill="none" stroke="black" cx="243" cy="-162" rx="27" ry="18"/>
<text text-anchor="middle" x="243" y="-158.3" font-family="Times,serif" font-size="14.00">C1</text>
</g>
<!-- 17&#45;&gt;19 -->
<g id="edge19" class="edge"><title>17&#45;&gt;19</title>
<path fill="none" stroke="black" d="M243,-215.697C243,-207.983 243,-198.712 243,-190.112"/>
<polygon fill="black" stroke="black" points="246.5,-190.104 243,-180.104 239.5,-190.104 246.5,-190.104"/>
</g>
<!-- 20 -->
<g id="node21" class="node"><title>20</title>
<ellipse fill="none" stroke="black" cx="171" cy="-90" rx="27" ry="18"/>
<text text-anchor="middle" x="171" y="-86.3" font-family="Times,serif" font-size="14.00">*</text>
</g>
<!-- 19&#45;&gt;20 -->
<g id="edge20" class="edge"><title>19&#45;&gt;20</title>
<path fill="none" stroke="black" d="M228.43,-146.834C218.25,-136.938 204.476,-123.546 192.969,-112.359"/>
<polygon fill="black" stroke="black" points="195.405,-109.846 185.796,-105.385 190.526,-114.865 195.405,-109.846"/>
</g>
<!-- 21 -->
<g id="node22" class="node"><title>21</title>
<ellipse fill="none" stroke="black" cx="243" cy="-90" rx="27" ry="18"/>
<text text-anchor="middle" x="243" y="-86.3" font-family="Times,serif" font-size="14.00">C1</text>
</g>
<!-- 19&#45;&gt;21 -->
<g id="edge21" class="edge"><title>19&#45;&gt;21</title>
<path fill="none" stroke="black" d="M243,-143.697C243,-135.983 243,-126.712 243,-118.112"/>
<polygon fill="black" stroke="black" points="246.5,-118.104 243,-108.104 239.5,-118.104 246.5,-118.104"/>
</g>
<!-- 22 -->
<g id="node23" class="node"><title>22</title>
<ellipse fill="none" stroke="black" cx="243" cy="-18" rx="27" ry="18"/>
<text text-anchor="middle" x="243" y="-14.3" font-family="Times,serif" font-size="14.00">Eps</text>
</g>
<!-- 21&#45;&gt;22 -->
<g id="edge22" class="edge"><title>21&#45;&gt;22</title>
<path fill="none" stroke="black" d="M243,-71.6966C243,-63.9827 243,-54.7125 243,-46.1124"/>
<polygon fill="black" stroke="black" points="246.5,-46.1043 243,-36.1043 239.5,-46.1044 246.5,-46.1043"/>
</g>
<!-- 24 -->
<g id="node25" class="node"><title>24</title>
<ellipse fill="none" stroke="black" cx="315" cy="-162" rx="27" ry="18"/>
<text text-anchor="middle" x="315" y="-158.3" font-family="Times,serif" font-size="14.00">C</text>
</g>
<!-- 23&#45;&gt;24 -->
<g id="edge24" class="edge"><title>23&#45;&gt;24</title>
<path fill="none" stroke="black" d="M315,-215.697C315,-207.983 315,-198.712 315,-190.112"/>
<polygon fill="black" stroke="black" points="318.5,-190.104 315,-180.104 311.5,-190.104 318.5,-190.104"/>
</g>
<!-- 28 -->
<g id="node29" class="node"><title>28</title>
<ellipse fill="none" stroke="black" cx="387" cy="-162" rx="27" ry="18"/>
<text text-anchor="middle" x="387" y="-158.3" font-family="Times,serif" font-size="14.00">A1</text>
</g>
<!-- 23&#45;&gt;28 -->
<g id="edge28" class="edge"><title>23&#45;&gt;28</title>
<path fill="none" stroke="black" d="M329.57,-218.834C339.75,-208.938 353.524,-195.546 365.031,-184.359"/>
<polygon fill="black" stroke="black" points="367.474,-186.865 372.204,-177.385 362.595,-181.846 367.474,-186.865"/>
</g>
<!-- 25 -->
<g id="node26" class="node"><title>25</title>
<ellipse fill="none" stroke="black" cx="315" cy="-90" rx="27" ry="18"/>
<text text-anchor="middle" x="315" y="-86.3" font-family="Times,serif" font-size="14.00">n</text>
</g>
<!-- 24&#45;&gt;25 -->
<g id="edge25" class="edge"><title>24&#45;&gt;25</title>
<path fill="none" stroke="black" d="M315,-143.697C315,-135.983 315,-126.712 315,-118.112"/>
<polygon fill="black" stroke="black" points="318.5,-118.104 315,-108.104 311.5,-118.104 318.5,-118.104"/>
</g>
<!-- 26 -->
<g id="node27" class="node"><title>26</title>
<ellipse fill="none" stroke="black" cx="387" cy="-90" rx="27" ry="18"/>
<text text-anchor="middle" x="387" y="-86.3" font-family="Times,serif" font-size="14.00">C1</text>
</g>
<!-- 24&#45;&gt;26 -->
<g id="edge26" class="edge"><title>24&#45;&gt;26</title>
<path fill="none" stroke="black" d="M329.57,-146.834C339.75,-136.938 353.524,-123.546 365.031,-112.359"/>
<polygon fill="black" stroke="black" points="367.474,-114.865 372.204,-105.385 362.595,-109.846 367.474,-114.865"/>
</g>
<!-- 27 -->
<g id="node28" class="node"><title>27</title>
<ellipse fill="none" stroke="black" cx="387" cy="-18" rx="27" ry="18"/>
<text text-anchor="middle" x="387" y="-14.3" font-family="Times,serif" font-size="14.00">Eps</text>
</g>
<!-- 26&#45;&gt;27 -->
<g id="edge27" class="edge"><title>26&#45;&gt;27</title>
<path fill="none" stroke="black" d="M387,-71.6966C387,-63.9827 387,-54.7125 387,-46.1124"/>
<polygon fill="black" stroke="black" points="390.5,-46.1043 387,-36.1043 383.5,-46.1044 390.5,-46.1043"/>
</g>
<!-- 29 -->
<g id="node30" class="node"><title>29</title>
<ellipse fill="none" stroke="black" cx="459" cy="-90" rx="27" ry="18"/>
<text text-anchor="middle" x="459" y="-86.3" font-family="Times,serif" font-size="14.00">Eps</text>
</g>
<!-- 28&#45;&gt;29 -->
<g id="edge29" class="edge"><title>28&#45;&gt;29</title>
<path fill="none" stroke="black" d="M401.57,-146.834C411.75,-136.938 425.524,-123.546 437.031,-112.359"/>
<polygon fill="black" stroke="black" points="439.474,-114.865 444.204,-105.385 434.595,-109.846 439.474,-114.865"/>
</g>
<!-- 31 -->
<g id="node32" class="node"><title>31</title>
<ellipse fill="none" stroke="black" cx="387" cy="-234" rx="27" ry="18"/>
<text text-anchor="middle" x="387" y="-230.3" font-family="Times,serif" font-size="14.00">Eps</text>
</g>
<!-- 30&#45;&gt;31 -->
<g id="edge31" class="edge"><title>30&#45;&gt;31</title>
<path fill="none" stroke="black" d="M387,-287.697C387,-279.983 387,-270.712 387,-262.112"/>
<polygon fill="black" stroke="black" points="390.5,-262.104 387,-252.104 383.5,-262.104 390.5,-262.104"/>
</g>
<!-- 34 -->
<g id="node35" class="node"><title>34</title>
<ellipse fill="none" stroke="black" cx="459" cy="-378" rx="27" ry="18"/>
<text text-anchor="middle" x="459" y="-374.3" font-family="Times,serif" font-size="14.00">Eps</text>
</g>
<!-- 33&#45;&gt;34 -->
<g id="edge34" class="edge"><title>33&#45;&gt;34</title>
<path fill="none" stroke="black" d="M459,-431.697C459,-423.983 459,-414.712 459,-406.112"/>
<polygon fill="black" stroke="black" points="462.5,-406.104 459,-396.104 455.5,-406.104 462.5,-406.104"/>
</g>
<!-- 36 -->
<g id="node37" class="node"><title>36</title>
<ellipse fill="none" stroke="black" cx="639" cy="-450" rx="27" ry="18"/>
<text text-anchor="middle" x="639" y="-446.3" font-family="Times,serif" font-size="14.00">C</text>
</g>
<!-- 35&#45;&gt;36 -->
<g id="edge36" class="edge"><title>35&#45;&gt;36</title>
<path fill="none" stroke="black" d="M639,-503.697C639,-495.983 639,-486.712 639,-478.112"/>
<polygon fill="black" stroke="black" points="642.5,-478.104 639,-468.104 635.5,-478.104 642.5,-478.104"/>
</g>
<!-- 60 -->
<g id="node61" class="node"><title>60</title>
<ellipse fill="none" stroke="black" cx="783" cy="-450" rx="27" ry="18"/>
<text text-anchor="middle" x="783" y="-446.3" font-family="Times,serif" font-size="14.00">A1</text>
</g>
<!-- 35&#45;&gt;60 -->
<g id="edge60" class="edge"><title>35&#45;&gt;60</title>
<path fill="none" stroke="black" d="M660.248,-510.671C684.602,-498.832 724.719,-479.331 752.428,-465.862"/>
<polygon fill="black" stroke="black" points="754.202,-468.891 761.665,-461.371 751.141,-462.595 754.202,-468.891"/>
</g>
<!-- 37 -->
<g id="node38" class="node"><title>37</title>
<ellipse fill="none" stroke="black" cx="531" cy="-378" rx="27" ry="18"/>
<text text-anchor="middle" x="531" y="-374.3" font-family="Times,serif" font-size="14.00">(</text>
</g>
<!-- 36&#45;&gt;37 -->
<g id="edge37" class="edge"><title>36&#45;&gt;37</title>
<path fill="none" stroke="black" d="M620.188,-436.807C602.998,-425.665 577.382,-409.062 558.007,-396.504"/>
<polygon fill="black" stroke="black" points="559.892,-393.555 549.597,-391.053 556.084,-399.429 559.892,-393.555"/>
</g>
<!-- 38 -->
<g id="node39" class="node"><title>38</title>
<ellipse fill="none" stroke="black" cx="603" cy="-378" rx="27" ry="18"/>
<text text-anchor="middle" x="603" y="-374.3" font-family="Times,serif" font-size="14.00">E</text>
</g>
<!-- 36&#45;&gt;38 -->
<g id="edge38" class="edge"><title>36&#45;&gt;38</title>
<path fill="none" stroke="black" d="M630.65,-432.765C626.288,-424.283 620.853,-413.714 615.959,-404.197"/>
<polygon fill="black" stroke="black" points="618.99,-402.439 611.304,-395.147 612.765,-405.641 618.99,-402.439"/>
</g>
<!-- 57 -->
<g id="node58" class="node"><title>57</title>
<ellipse fill="none" stroke="black" cx="675" cy="-378" rx="27" ry="18"/>
<text text-anchor="middle" x="675" y="-374.3" font-family="Times,serif" font-size="14.00">)</text>
</g>
<!-- 36&#45;&gt;57 -->
<g id="edge57" class="edge"><title>36&#45;&gt;57</title>
<path fill="none" stroke="black" d="M647.35,-432.765C651.712,-424.283 657.147,-413.714 662.041,-404.197"/>
<polygon fill="black" stroke="black" points="665.235,-405.641 666.696,-395.147 659.01,-402.439 665.235,-405.641"/>
</g>
<!-- 58 -->
<g id="node59" class="node"><title>58</title>
<ellipse fill="none" stroke="black" cx="747" cy="-378" rx="27" ry="18"/>
<text text-anchor="middle" x="747" y="-374.3" font-family="Times,serif" font-size="14.00">C1</text>
</g>
<!-- 36&#45;&gt;58 -->
<g id="edge58" class="edge"><title>36&#45;&gt;58</title>
<path fill="none" stroke="black" d="M657.812,-436.807C675.002,-425.665 700.618,-409.062 719.993,-396.504"/>
<polygon fill="black" stroke="black" points="721.916,-399.429 728.403,-391.053 718.108,-393.555 721.916,-399.429"/>
</g>
<!-- 39 -->
<g id="node40" class="node"><title>39</title>
<ellipse fill="none" stroke="black" cx="603" cy="-306" rx="27" ry="18"/>
<text text-anchor="middle" x="603" y="-302.3" font-family="Times,serif" font-size="14.00">A</text>
</g>
<!-- 38&#45;&gt;39 -->
<g id="edge39" class="edge"><title>38&#45;&gt;39</title>
<path fill="none" stroke="black" d="M603,-359.697C603,-351.983 603,-342.712 603,-334.112"/>
<polygon fill="black" stroke="black" points="606.5,-334.104 603,-324.104 599.5,-334.104 606.5,-334.104"/>
</g>
<!-- 46 -->
<g id="node47" class="node"><title>46</title>
<ellipse fill="none" stroke="black" cx="675" cy="-306" rx="27" ry="18"/>
<text text-anchor="middle" x="675" y="-302.3" font-family="Times,serif" font-size="14.00">E1</text>
</g>
<!-- 38&#45;&gt;46 -->
<g id="edge46" class="edge"><title>38&#45;&gt;46</title>
<path fill="none" stroke="black" d="M617.57,-362.834C627.75,-352.938 641.524,-339.546 653.031,-328.359"/>
<polygon fill="black" stroke="black" points="655.474,-330.865 660.204,-321.385 650.595,-325.846 655.474,-330.865"/>
</g>
<!-- 40 -->
<g id="node41" class="node"><title>40</title>
<ellipse fill="none" stroke="black" cx="531" cy="-234" rx="27" ry="18"/>
<text text-anchor="middle" x="531" y="-230.3" font-family="Times,serif" font-size="14.00">C</text>
</g>
<!-- 39&#45;&gt;40 -->
<g id="edge40" class="edge"><title>39&#45;&gt;40</title>
<path fill="none" stroke="black" d="M588.43,-290.834C578.25,-280.938 564.476,-267.546 552.969,-256.359"/>
<polygon fill="black" stroke="black" points="555.405,-253.846 545.796,-249.385 550.526,-258.865 555.405,-253.846"/>
</g>
<!-- 44 -->
<g id="node45" class="node"><title>44</title>
<ellipse fill="none" stroke="black" cx="603" cy="-234" rx="27" ry="18"/>
<text text-anchor="middle" x="603" y="-230.3" font-family="Times,serif" font-size="14.00">A1</text>
</g>
<!-- 39&#45;&gt;44 -->
<g id="edge44" class="edge"><title>39&#45;&gt;44</title>
<path fill="none" stroke="black" d="M603,-287.697C603,-279.983 603,-270.712 603,-262.112"/>
<polygon fill="black" stroke="black" points="606.5,-262.104 603,-252.104 599.5,-262.104 606.5,-262.104"/>
</g>
<!-- 41 -->
<g id="node42" class="node"><title>41</title>
<ellipse fill="none" stroke="black" cx="459" cy="-162" rx="27" ry="18"/>
<text text-anchor="middle" x="459" y="-158.3" font-family="Times,serif" font-size="14.00">n</text>
</g>
<!-- 40&#45;&gt;41 -->
<g id="edge41" class="edge"><title>40&#45;&gt;41</title>
<path fill="none" stroke="black" d="M516.43,-218.834C506.25,-208.938 492.476,-195.546 480.969,-184.359"/>
<polygon fill="black" stroke="black" points="483.405,-181.846 473.796,-177.385 478.526,-186.865 483.405,-181.846"/>
</g>
<!-- 42 -->
<g id="node43" class="node"><title>42</title>
<ellipse fill="none" stroke="black" cx="531" cy="-162" rx="27" ry="18"/>
<text text-anchor="middle" x="531" y="-158.3" font-family="Times,serif" font-size="14.00">C1</text>
</g>
<!-- 40&#45;&gt;42 -->
<g id="edge42" class="edge"><title>40&#45;&gt;42</title>
<path fill="none" stroke="black" d="M531,-215.697C531,-207.983 531,-198.712 531,-190.112"/>
<polygon fill="black" stroke="black" points="534.5,-190.104 531,-180.104 527.5,-190.104 534.5,-190.104"/>
</g>
<!-- 43 -->
<g id="node44" class="node"><title>43</title>
<ellipse fill="none" stroke="black" cx="531" cy="-90" rx="27" ry="18"/>
<text text-anchor="middle" x="531" y="-86.3" font-family="Times,serif" font-size="14.00">Eps</text>
</g>
<!-- 42&#45;&gt;43 -->
<g id="edge43" class="edge"><title>42&#45;&gt;43</title>
<path fill="none" stroke="black" d="M531,-143.697C531,-135.983 531,-126.712 531,-118.112"/>
<polygon fill="black" stroke="black" points="534.5,-118.104 531,-108.104 527.5,-118.104 534.5,-118.104"/>
</g>
<!-- 45 -->
<g id="node46" class="node"><title>45</title>
<ellipse fill="none" stroke="black" cx="603" cy="-162" rx="27" ry="18"/>
<text text-anchor="middle" x="603" y="-158.3" font-family="Times,serif" font-size="14.00">Eps</text>
</g>
<!-- 44&#45;&gt;45 -->
<g id="edge45" class="edge"><title>44&#45;&gt;45</title>
<path fill="none" stroke="black" d="M603,-215.697C603,-207.983 603,-198.712 603,-190.112"/>
<polygon fill="black" stroke="black" points="606.5,-190.104 603,-180.104 599.5,-190.104 606.5,-190.104"/>
</g>
<!-- 47 -->
<g id="node48" class="node"><title>47</title>
<ellipse fill="none" stroke="black" cx="675" cy="-234" rx="27" ry="18"/>
<text text-anchor="middle" x="675" y="-230.3" font-family="Times,serif" font-size="14.00">|</text>
</g>
<!-- 46&#45;&gt;47 -->
<g id="edge47" class="edge"><title>46&#45;&gt;47</title>
<path fill="none" stroke="black" d="M675,-287.697C675,-279.983 675,-270.712 675,-262.112"/>
<polygon fill="black" stroke="black" points="678.5,-262.104 675,-252.104 671.5,-262.104 678.5,-262.104"/>
</g>
<!-- 48 -->
<g id="node49" class="node"><title>48</title>
<ellipse fill="none" stroke="black" cx="747" cy="-234" rx="27" ry="18"/>
<text text-anchor="middle" x="747" y="-230.3" font-family="Times,serif" font-size="14.00">A</text>
</g>
<!-- 46&#45;&gt;48 -->
<g id="edge48" class="edge"><title>46&#45;&gt;48</title>
<path fill="none" stroke="black" d="M689.57,-290.834C699.75,-280.938 713.524,-267.546 725.031,-256.359"/>
<polygon fill="black" stroke="black" points="727.474,-258.865 732.204,-249.385 722.595,-253.846 727.474,-258.865"/>
</g>
<!-- 55 -->
<g id="node56" class="node"><title>55</title>
<ellipse fill="none" stroke="black" cx="819" cy="-234" rx="27" ry="18"/>
<text text-anchor="middle" x="819" y="-230.3" font-family="Times,serif" font-size="14.00">E1</text>
</g>
<!-- 46&#45;&gt;55 -->
<g id="edge55" class="edge"><title>46&#45;&gt;55</title>
<path fill="none" stroke="black" d="M696.248,-294.671C720.602,-282.832 760.719,-263.331 788.428,-249.862"/>
<polygon fill="black" stroke="black" points="790.202,-252.891 797.665,-245.371 787.141,-246.595 790.202,-252.891"/>
</g>
<!-- 49 -->
<g id="node50" class="node"><title>49</title>
<ellipse fill="none" stroke="black" cx="675" cy="-162" rx="27" ry="18"/>
<text text-anchor="middle" x="675" y="-158.3" font-family="Times,serif" font-size="14.00">C</text>
</g>
<!-- 48&#45;&gt;49 -->
<g id="edge49" class="edge"><title>48&#45;&gt;49</title>
<path fill="none" stroke="black" d="M732.43,-218.834C722.25,-208.938 708.476,-195.546 696.969,-184.359"/>
<polygon fill="black" stroke="black" points="699.405,-181.846 689.796,-177.385 694.526,-186.865 699.405,-181.846"/>
</g>
<!-- 53 -->
<g id="node54" class="node"><title>53</title>
<ellipse fill="none" stroke="black" cx="747" cy="-162" rx="27" ry="18"/>
<text text-anchor="middle" x="747" y="-158.3" font-family="Times,serif" font-size="14.00">A1</text>
</g>
<!-- 48&#45;&gt;53 -->
<g id="edge53" class="edge"><title>48&#45;&gt;53</title>
<path fill="none" stroke="black" d="M747,-215.697C747,-207.983 747,-198.712 747,-190.112"/>
<polygon fill="black" stroke="black" points="750.5,-190.104 747,-180.104 743.5,-190.104 750.5,-190.104"/>
</g>
<!-- 50 -->
<g id="node51" class="node"><title>50</title>
<ellipse fill="none" stroke="black" cx="603" cy="-90" rx="27" ry="18"/>
<text text-anchor="middle" x="603" y="-86.3" font-family="Times,serif" font-size="14.00">n</text>
</g>
<!-- 49&#45;&gt;50 -->
<g id="edge50" class="edge"><title>49&#45;&gt;50</title>
<path fill="none" stroke="black" d="M660.43,-146.834C650.25,-136.938 636.476,-123.546 624.969,-112.359"/>
<polygon fill="black" stroke="black" points="627.405,-109.846 617.796,-105.385 622.526,-114.865 627.405,-109.846"/>
</g>
<!-- 51 -->
<g id="node52" class="node"><title>51</title>
<ellipse fill="none" stroke="black" cx="675" cy="-90" rx="27" ry="18"/>
<text text-anchor="middle" x="675" y="-86.3" font-family="Times,serif" font-size="14.00">C1</text>
</g>
<!-- 49&#45;&gt;51 -->
<g id="edge51" class="edge"><title>49&#45;&gt;51</title>
<path fill="none" stroke="black" d="M675,-143.697C675,-135.983 675,-126.712 675,-118.112"/>
<polygon fill="black" stroke="black" points="678.5,-118.104 675,-108.104 671.5,-118.104 678.5,-118.104"/>
</g>
<!-- 52 -->
<g id="node53" class="node"><title>52</title>
<ellipse fill="none" stroke="black" cx="675" cy="-18" rx="27" ry="18"/>
<text text-anchor="middle" x="675" y="-14.3" font-family="Times,serif" font-size="14.00">Eps</text>
</g>
<!-- 51&#45;&gt;52 -->
<g id="edge52" class="edge"><title>51&#45;&gt;52</title>
<path fill="none" stroke="black" d="M675,-71.6966C675,-63.9827 675,-54.7125 675,-46.1124"/>
<polygon fill="black" stroke="black" points="678.5,-46.1043 675,-36.1043 671.5,-46.1044 678.5,-46.1043"/>
</g>
<!-- 54 -->
<g id="node55" class="node"><title>54</title>
<ellipse fill="none" stroke="black" cx="747" cy="-90" rx="27" ry="18"/>
<text text-anchor="middle" x="747" y="-86.3" font-family="Times,serif" font-size="14.00">Eps</text>
</g>
<!-- 53&#45;&gt;54 -->
<g id="edge54" class="edge"><title>53&#45;&gt;54</title>
<path fill="none" stroke="black" d="M747,-143.697C747,-135.983 747,-126.712 747,-118.112"/>
<polygon fill="black" stroke="black" points="750.5,-118.104 747,-108.104 743.5,-118.104 750.5,-118.104"/>
</g>
<!-- 56 -->
<g id="node57" class="node"><title>56</title>
<ellipse fill="none" stroke="black" cx="819" cy="-162" rx="27" ry="18"/>
<text text-anchor="middle" x="819" y="-158.3" font-family="Times,serif" font-size="14.00">Eps</text>
</g>
<!-- 55&#45;&gt;56 -->
<g id="edge56" class="edge"><title>55&#45;&gt;56</title>
<path fill="none" stroke="black" d="M819,-215.697C819,-207.983 819,-198.712 819,-190.112"/>
<polygon fill="black" stroke="black" points="822.5,-190.104 819,-180.104 815.5,-190.104 822.5,-190.104"/>
</g>
<!-- 59 -->
<g id="node60" class="node"><title>59</title>
<ellipse fill="none" stroke="black" cx="747" cy="-306" rx="27" ry="18"/>
<text text-anchor="middle" x="747" y="-302.3" font-family="Times,serif" font-size="14.00">Eps</text>
</g>
<!-- 58&#45;&gt;59 -->
<g id="edge59" class="edge"><title>58&#45;&gt;59</title>
<path fill="none" stroke="black" d="M747,-359.697C747,-351.983 747,-342.712 747,-334.112"/>
<polygon fill="black" stroke="black" points="750.5,-334.104 747,-324.104 743.5,-334.104 750.5,-334.104"/>
</g>
<!-- 61 -->
<g id="node62" class="node"><title>61</title>
<ellipse fill="none" stroke="black" cx="819" cy="-378" rx="27" ry="18"/>
<text text-anchor="middle" x="819" y="-374.3" font-family="Times,serif" font-size="14.00">Eps</text>
</g>
<!-- 60&#45;&gt;61 -->
<g id="edge61" class="edge"><title>60&#45;&gt;61</title>
<path fill="none" stroke="black" d="M791.35,-432.765C795.712,-424.283 801.147,-413.714 806.041,-404.197"/>
<polygon fill="black" stroke="black" points="809.235,-405.641 810.696,-395.147 803.01,-402.439 809.235,-405.641"/>
</g>
<!-- 63 -->
<g id="node64" class="node"><title>63</title>
<ellipse fill="none" stroke="black" cx="711" cy="-522" rx="27" ry="18"/>
<text text-anchor="middle" x="711" y="-518.3" font-family="Times,serif" font-size="14.00">Eps</text>
</g>
<!-- 62&#45;&gt;63 -->
<g id="edge63" class="edge"><title>62&#45;&gt;63</title>
<path fill="none" stroke="black" d="M711,-575.697C711,-567.983 711,-558.712 711,-550.112"/>
<polygon fill="black" stroke="black" points="714.5,-550.104 711,-540.104 707.5,-550.104 714.5,-550.104"/>
</g>
</g>
</svg>
