<?xml version="1.0" encoding="UTF-8" standalone="no"?>
<!DOCTYPE svg PUBLIC "-//W3C//DTD SVG 1.1//EN"
 "http://www.w3.org/Graphics/SVG/1.1/DTD/svg11.dtd">
<!-- Generated by graphviz version 2.38.0 (20140413.2041)
 -->
<!-- Title: dg Pages: 1 -->
<svg width="530pt" height="620pt"
 viewBox="0.00 0.00 530.00 620.00" xmlns="http://www.w3.org/2000/svg" xmlns:xlink="http://www.w3.org/1999/xlink">
<g id="graph0" class="graph" transform="scale(1 1) rotate(0) translate(4 616)">
<title>dg</title>
<polygon fill="white" stroke="none" points="-4,4 -4,-616 526,-616 526,4 -4,4"/>
<!-- 0 -->
<g id="node1" class="node"><title>0</title>
<ellipse fill="none" stroke="black" cx="459" cy="-594" rx="27" ry="18"/>
<text text-anchor="middle" x="459" y="-590.3" font-family="Times,serif" font-size="14.00">E</text>
</g>
<!-- 1 -->
<g id="node2" class="node"><title>1</title>
<ellipse fill="none" stroke="black" cx="423" cy="-522" rx="27" ry="18"/>
<text text-anchor="middle" x="423" y="-518.3" font-family="Times,serif" font-size="14.00">A</text>
</g>
<!-- 0&#45;&gt;1 -->
<g id="edge1" class="edge"><title>0&#45;&gt;1</title>
<path fill="none" stroke="black" d="M450.65,-576.765C446.288,-568.283 440.853,-557.714 435.959,-548.197"/>
<polygon fill="black" stroke="black" points="438.99,-546.439 431.304,-539.147 432.765,-549.641 438.99,-546.439"/>
</g>
<!-- 28 -->
<g id="node29" class="node"><title>28</title>
<ellipse fill="none" stroke="black" cx="495" cy="-522" rx="27" ry="18"/>
<text text-anchor="middle" x="495" y="-518.3" font-family="Times,serif" font-size="14.00">E1</text>
</g>
<!-- 0&#45;&gt;28 -->
<g id="edge28" class="edge"><title>0&#45;&gt;28</title>
<path fill="none" stroke="black" d="M467.35,-576.765C471.712,-568.283 477.147,-557.714 482.041,-548.197"/>
<polygon fill="black" stroke="black" points="485.235,-549.641 486.696,-539.147 479.01,-546.439 485.235,-549.641"/>
</g>
<!-- 2 -->
<g id="node3" class="node"><title>2</title>
<ellipse fill="none" stroke="black" cx="315" cy="-450" rx="27" ry="18"/>
<text text-anchor="middle" x="315" y="-446.3" font-family="Times,serif" font-size="14.00">C</text>
</g>
<!-- 1&#45;&gt;2 -->
<g id="edge2" class="edge"><title>1&#45;&gt;2</title>
<path fill="none" stroke="black" d="M404.188,-508.807C386.998,-497.665 361.382,-481.062 342.007,-468.504"/>
<polygon fill="black" stroke="black" points="343.892,-465.555 333.597,-463.053 340.084,-471.429 343.892,-465.555"/>
</g>
<!-- 26 -->
<g id="node27" class="node"><title>26</title>
<ellipse fill="none" stroke="black" cx="423" cy="-450" rx="27" ry="18"/>
<text text-anchor="middle" x="423" y="-446.3" font-family="Times,serif" font-size="14.00">A1</text>
</g>
<!-- 1&#45;&gt;26 -->
<g id="edge26" class="edge"><title>1&#45;&gt;26</title>
<path fill="none" stroke="black" d="M423,-503.697C423,-495.983 423,-486.712 423,-478.112"/>
<polygon fill="black" stroke="black" points="426.5,-478.104 423,-468.104 419.5,-478.104 426.5,-478.104"/>
</g>
<!-- 3 -->
<g id="node4" class="node"><title>3</title>
<ellipse fill="none" stroke="black" cx="171" cy="-378" rx="27" ry="18"/>
<text text-anchor="middle" x="171" y="-374.3" font-family="Times,serif" font-size="14.00">(</text>
</g>
<!-- 2&#45;&gt;3 -->
<g id="edge3" class="edge"><title>2&#45;&gt;3</title>
<path fill="none" stroke="black" d="M293.752,-438.671C269.398,-426.832 229.281,-407.331 201.572,-393.862"/>
<polygon fill="black" stroke="black" points="202.859,-390.595 192.335,-389.371 199.798,-396.891 202.859,-390.595"/>
</g>
<!-- 4 -->
<g id="node5" class="node"><title>4</title>
<ellipse fill="none" stroke="black" cx="243" cy="-378" rx="27" ry="18"/>
<text text-anchor="middle" x="243" y="-374.3" font-family="Times,serif" font-size="14.00">E</text>
</g>
<!-- 2&#45;&gt;4 -->
<g id="edge4" class="edge"><title>2&#45;&gt;4</title>
<path fill="none" stroke="black" d="M300.43,-434.834C290.25,-424.938 276.476,-411.546 264.969,-400.359"/>
<polygon fill="black" stroke="black" points="267.405,-397.846 257.796,-393.385 262.526,-402.865 267.405,-397.846"/>
</g>
<!-- 23 -->
<g id="node24" class="node"><title>23</title>
<ellipse fill="none" stroke="black" cx="315" cy="-378" rx="27" ry="18"/>
<text text-anchor="middle" x="315" y="-374.3" font-family="Times,serif" font-size="14.00">)</text>
</g>
<!-- 2&#45;&gt;23 -->
<g id="edge23" class="edge"><title>2&#45;&gt;23</title>
<path fill="none" stroke="black" d="M315,-431.697C315,-423.983 315,-414.712 315,-406.112"/>
<polygon fill="black" stroke="black" points="318.5,-406.104 315,-396.104 311.5,-406.104 318.5,-406.104"/>
</g>
<!-- 24 -->
<g id="node25" class="node"><title>24</title>
<ellipse fill="none" stroke="black" cx="387" cy="-378" rx="27" ry="18"/>
<text text-anchor="middle" x="387" y="-374.3" font-family="Times,serif" font-size="14.00">C1</text>
</g>
<!-- 2&#45;&gt;24 -->
<g id="edge24" class="edge"><title>2&#45;&gt;24</title>
<path fill="none" stroke="black" d="M329.57,-434.834C339.75,-424.938 353.524,-411.546 365.031,-400.359"/>
<polygon fill="black" stroke="black" points="367.474,-402.865 372.204,-393.385 362.595,-397.846 367.474,-402.865"/>
</g>
<!-- 5 -->
<g id="node6" class="node"><title>5</title>
<ellipse fill="none" stroke="black" cx="171" cy="-306" rx="27" ry="18"/>
<text text-anchor="middle" x="171" y="-302.3" font-family="Times,serif" font-size="14.00">A</text>
</g>
<!-- 4&#45;&gt;5 -->
<g id="edge5" class="edge"><title>4&#45;&gt;5</title>
<path fill="none" stroke="black" d="M228.43,-362.834C218.25,-352.938 204.476,-339.546 192.969,-328.359"/>
<polygon fill="black" stroke="black" points="195.405,-325.846 185.796,-321.385 190.526,-330.865 195.405,-325.846"/>
</g>
<!-- 12 -->
<g id="node13" class="node"><title>12</title>
<ellipse fill="none" stroke="black" cx="279" cy="-306" rx="27" ry="18"/>
<text text-anchor="middle" x="279" y="-302.3" font-family="Times,serif" font-size="14.00">E1</text>
</g>
<!-- 4&#45;&gt;12 -->
<g id="edge12" class="edge"><title>4&#45;&gt;12</title>
<path fill="none" stroke="black" d="M251.35,-360.765C255.712,-352.283 261.147,-341.714 266.041,-332.197"/>
<polygon fill="black" stroke="black" points="269.235,-333.641 270.696,-323.147 263.01,-330.439 269.235,-333.641"/>
</g>
<!-- 6 -->
<g id="node7" class="node"><title>6</title>
<ellipse fill="none" stroke="black" cx="99" cy="-234" rx="27" ry="18"/>
<text text-anchor="middle" x="99" y="-230.3" font-family="Times,serif" font-size="14.00">C</text>
</g>
<!-- 5&#45;&gt;6 -->
<g id="edge6" class="edge"><title>5&#45;&gt;6</title>
<path fill="none" stroke="black" d="M156.43,-290.834C146.25,-280.938 132.476,-267.546 120.969,-256.359"/>
<polygon fill="black" stroke="black" points="123.405,-253.846 113.796,-249.385 118.526,-258.865 123.405,-253.846"/>
</g>
<!-- 10 -->
<g id="node11" class="node"><title>10</title>
<ellipse fill="none" stroke="black" cx="171" cy="-234" rx="27" ry="18"/>
<text text-anchor="middle" x="171" y="-230.3" font-family="Times,serif" font-size="14.00">A1</text>
</g>
<!-- 5&#45;&gt;10 -->
<g id="edge10" class="edge"><title>5&#45;&gt;10</title>
<path fill="none" stroke="black" d="M171,-287.697C171,-279.983 171,-270.712 171,-262.112"/>
<polygon fill="black" stroke="black" points="174.5,-262.104 171,-252.104 167.5,-262.104 174.5,-262.104"/>
</g>
<!-- 7 -->
<g id="node8" class="node"><title>7</title>
<ellipse fill="none" stroke="black" cx="27" cy="-162" rx="27" ry="18"/>
<text text-anchor="middle" x="27" y="-158.3" font-family="Times,serif" font-size="14.00">n</text>
</g>
<!-- 6&#45;&gt;7 -->
<g id="edge7" class="edge"><title>6&#45;&gt;7</title>
<path fill="none" stroke="black" d="M84.4297,-218.834C74.2501,-208.938 60.4761,-195.546 48.9694,-184.359"/>
<polygon fill="black" stroke="black" points="51.4055,-181.846 41.7957,-177.385 46.5259,-186.865 51.4055,-181.846"/>
</g>
<!-- 8 -->
<g id="node9" class="node"><title>8</title>
<ellipse fill="none" stroke="black" cx="99" cy="-162" rx="27" ry="18"/>
<text text-anchor="middle" x="99" y="-158.3" font-family="Times,serif" font-size="14.00">C1</text>
</g>
<!-- 6&#45;&gt;8 -->
<g id="edge8" class="edge"><title>6&#45;&gt;8</title>
<path fill="none" stroke="black" d="M99,-215.697C99,-207.983 99,-198.712 99,-190.112"/>
<polygon fill="black" stroke="black" points="102.5,-190.104 99,-180.104 95.5001,-190.104 102.5,-190.104"/>
</g>
<!-- 9 -->
<g id="node10" class="node"><title>9</title>
<ellipse fill="none" stroke="black" cx="99" cy="-90" rx="27" ry="18"/>
<text text-anchor="middle" x="99" y="-86.3" font-family="Times,serif" font-size="14.00">Eps</text>
</g>
<!-- 8&#45;&gt;9 -->
<g id="edge9" class="edge"><title>8&#45;&gt;9</title>
<path fill="none" stroke="black" d="M99,-143.697C99,-135.983 99,-126.712 99,-118.112"/>
<polygon fill="black" stroke="black" points="102.5,-118.104 99,-108.104 95.5001,-118.104 102.5,-118.104"/>
</g>
<!-- 11 -->
<g id="node12" class="node"><title>11</title>
<ellipse fill="none" stroke="black" cx="171" cy="-162" rx="27" ry="18"/>
<text text-anchor="middle" x="171" y="-158.3" font-family="Times,serif" font-size="14.00">Eps</text>
</g>
<!-- 10&#45;&gt;11 -->
<g id="edge11" class="edge"><title>10&#45;&gt;11</title>
<path fill="none" stroke="black" d="M171,-215.697C171,-207.983 171,-198.712 171,-190.112"/>
<polygon fill="black" stroke="black" points="174.5,-190.104 171,-180.104 167.5,-190.104 174.5,-190.104"/>
</g>
<!-- 13 -->
<g id="node14" class="node"><title>13</title>
<ellipse fill="none" stroke="black" cx="243" cy="-234" rx="27" ry="18"/>
<text text-anchor="middle" x="243" y="-230.3" font-family="Times,serif" font-size="14.00">|</text>
</g>
<!-- 12&#45;&gt;13 -->
<g id="edge13" class="edge"><title>12&#45;&gt;13</title>
<path fill="none" stroke="black" d="M270.65,-288.765C266.288,-280.283 260.853,-269.714 255.959,-260.197"/>
<polygon fill="black" stroke="black" points="258.99,-258.439 251.304,-251.147 252.765,-261.641 258.99,-258.439"/>
</g>
<!-- 14 -->
<g id="node15" class="node"><title>14</title>
<ellipse fill="none" stroke="black" cx="315" cy="-234" rx="27" ry="18"/>
<text text-anchor="middle" x="315" y="-230.3" font-family="Times,serif" font-size="14.00">A</text>
</g>
<!-- 12&#45;&gt;14 -->
<g id="edge14" class="edge"><title>12&#45;&gt;14</title>
<path fill="none" stroke="black" d="M287.35,-288.765C291.712,-280.283 297.147,-269.714 302.041,-260.197"/>
<polygon fill="black" stroke="black" points="305.235,-261.641 306.696,-251.147 299.01,-258.439 305.235,-261.641"/>
</g>
<!-- 21 -->
<g id="node22" class="node"><title>21</title>
<ellipse fill="none" stroke="black" cx="387" cy="-234" rx="27" ry="18"/>
<text text-anchor="middle" x="387" y="-230.3" font-family="Times,serif" font-size="14.00">E1</text>
</g>
<!-- 12&#45;&gt;21 -->
<g id="edge21" class="edge"><title>12&#45;&gt;21</title>
<path fill="none" stroke="black" d="M297.812,-292.807C315.002,-281.665 340.618,-265.062 359.993,-252.504"/>
<polygon fill="black" stroke="black" points="361.916,-255.429 368.403,-247.053 358.108,-249.555 361.916,-255.429"/>
</g>
<!-- 15 -->
<g id="node16" class="node"><title>15</title>
<ellipse fill="none" stroke="black" cx="243" cy="-162" rx="27" ry="18"/>
<text text-anchor="middle" x="243" y="-158.3" font-family="Times,serif" font-size="14.00">C</text>
</g>
<!-- 14&#45;&gt;15 -->
<g id="edge15" class="edge"><title>14&#45;&gt;15</title>
<path fill="none" stroke="black" d="M300.43,-218.834C290.25,-208.938 276.476,-195.546 264.969,-184.359"/>
<polygon fill="black" stroke="black" points="267.405,-181.846 257.796,-177.385 262.526,-186.865 267.405,-181.846"/>
</g>
<!-- 19 -->
<g id="node20" class="node"><title>19</title>
<ellipse fill="none" stroke="black" cx="315" cy="-162" rx="27" ry="18"/>
<text text-anchor="middle" x="315" y="-158.3" font-family="Times,serif" font-size="14.00">A1</text>
</g>
<!-- 14&#45;&gt;19 -->
<g id="edge19" class="edge"><title>14&#45;&gt;19</title>
<path fill="none" stroke="black" d="M315,-215.697C315,-207.983 315,-198.712 315,-190.112"/>
<polygon fill="black" stroke="black" points="318.5,-190.104 315,-180.104 311.5,-190.104 318.5,-190.104"/>
</g>
<!-- 16 -->
<g id="node17" class="node"><title>16</title>
<ellipse fill="none" stroke="black" cx="171" cy="-90" rx="27" ry="18"/>
<text text-anchor="middle" x="171" y="-86.3" font-family="Times,serif" font-size="14.00">n</text>
</g>
<!-- 15&#45;&gt;16 -->
<g id="edge16" class="edge"><title>15&#45;&gt;16</title>
<path fill="none" stroke="black" d="M228.43,-146.834C218.25,-136.938 204.476,-123.546 192.969,-112.359"/>
<polygon fill="black" stroke="black" points="195.405,-109.846 185.796,-105.385 190.526,-114.865 195.405,-109.846"/>
</g>
<!-- 17 -->
<g id="node18" class="node"><title>17</title>
<ellipse fill="none" stroke="black" cx="243" cy="-90" rx="27" ry="18"/>
<text text-anchor="middle" x="243" y="-86.3" font-family="Times,serif" font-size="14.00">C1</text>
</g>
<!-- 15&#45;&gt;17 -->
<g id="edge17" class="edge"><title>15&#45;&gt;17</title>
<path fill="none" stroke="black" d="M243,-143.697C243,-135.983 243,-126.712 243,-118.112"/>
<polygon fill="black" stroke="black" points="246.5,-118.104 243,-108.104 239.5,-118.104 246.5,-118.104"/>
</g>
<!-- 18 -->
<g id="node19" class="node"><title>18</title>
<ellipse fill="none" stroke="black" cx="243" cy="-18" rx="27" ry="18"/>
<text text-anchor="middle" x="243" y="-14.3" font-family="Times,serif" font-size="14.00">Eps</text>
</g>
<!-- 17&#45;&gt;18 -->
<g id="edge18" class="edge"><title>17&#45;&gt;18</title>
<path fill="none" stroke="black" d="M243,-71.6966C243,-63.9827 243,-54.7125 243,-46.1124"/>
<polygon fill="black" stroke="black" points="246.5,-46.1043 243,-36.1043 239.5,-46.1044 246.5,-46.1043"/>
</g>
<!-- 20 -->
<g id="node21" class="node"><title>20</title>
<ellipse fill="none" stroke="black" cx="315" cy="-90" rx="27" ry="18"/>
<text text-anchor="middle" x="315" y="-86.3" font-family="Times,serif" font-size="14.00">Eps</text>
</g>
<!-- 19&#45;&gt;20 -->
<g id="edge20" class="edge"><title>19&#45;&gt;20</title>
<path fill="none" stroke="black" d="M315,-143.697C315,-135.983 315,-126.712 315,-118.112"/>
<polygon fill="black" stroke="black" points="318.5,-118.104 315,-108.104 311.5,-118.104 318.5,-118.104"/>
</g>
<!-- 22 -->
<g id="node23" class="node"><title>22</title>
<ellipse fill="none" stroke="black" cx="387" cy="-162" rx="27" ry="18"/>
<text text-anchor="middle" x="387" y="-158.3" font-family="Times,serif" font-size="14.00">Eps</text>
</g>
<!-- 21&#45;&gt;22 -->
<g id="edge22" class="edge"><title>21&#45;&gt;22</title>
<path fill="none" stroke="black" d="M387,-215.697C387,-207.983 387,-198.712 387,-190.112"/>
<polygon fill="black" stroke="black" points="390.5,-190.104 387,-180.104 383.5,-190.104 390.5,-190.104"/>
</g>
<!-- 25 -->
<g id="node26" class="node"><title>25</title>
<ellipse fill="none" stroke="black" cx="387" cy="-306" rx="27" ry="18"/>
<text text-anchor="middle" x="387" y="-302.3" font-family="Times,serif" font-size="14.00">Eps</text>
</g>
<!-- 24&#45;&gt;25 -->
<g id="edge25" class="edge"><title>24&#45;&gt;25</title>
<path fill="none" stroke="black" d="M387,-359.697C387,-351.983 387,-342.712 387,-334.112"/>
<polygon fill="black" stroke="black" points="390.5,-334.104 387,-324.104 383.5,-334.104 390.5,-334.104"/>
</g>
<!-- 27 -->
<g id="node28" class="node"><title>27</title>
<ellipse fill="none" stroke="black" cx="459" cy="-378" rx="27" ry="18"/>
<text text-anchor="middle" x="459" y="-374.3" font-family="Times,serif" font-size="14.00">Eps</text>
</g>
<!-- 26&#45;&gt;27 -->
<g id="edge27" class="edge"><title>26&#45;&gt;27</title>
<path fill="none" stroke="black" d="M431.35,-432.765C435.712,-424.283 441.147,-413.714 446.041,-404.197"/>
<polygon fill="black" stroke="black" points="449.235,-405.641 450.696,-395.147 443.01,-402.439 449.235,-405.641"/>
</g>
<!-- 29 -->
<g id="node30" class="node"><title>29</title>
<ellipse fill="none" stroke="black" cx="495" cy="-450" rx="27" ry="18"/>
<text text-anchor="middle" x="495" y="-446.3" font-family="Times,serif" font-size="14.00">Eps</text>
</g>
<!-- 28&#45;&gt;29 -->
<g id="edge29" class="edge"><title>28&#45;&gt;29</title>
<path fill="none" stroke="black" d="M495,-503.697C495,-495.983 495,-486.712 495,-478.112"/>
<polygon fill="black" stroke="black" points="498.5,-478.104 495,-468.104 491.5,-478.104 498.5,-478.104"/>
</g>
</g>
</svg>
